<svg width="48" height="33" viewBox="0 0 48 33" fill="none" xmlns="http://www.w3.org/2000/svg">
<path d="M24.0417 19.199C26.9635 19.199 29.3843 16.8616 29.3843 13.8564C29.3843 10.9347 26.9635 8.51379 24.0417 8.51379C23.9583 8.51379 23.8748 8.59727 23.7913 8.59727C23.8748 8.93118 24.0417 9.51553 24.0417 9.93292C24.0417 12.1034 22.2052 13.9399 20.0348 13.9399C19.6174 13.9399 19.033 13.7729 18.6991 13.6894C18.6991 13.7729 18.6991 13.8564 18.6991 13.8564C18.6991 16.8616 21.0365 19.199 24.0417 19.199ZM47.7496 15.359C43.2417 6.51031 34.2261 0.499878 24.0417 0.499878C13.7739 0.499878 4.75826 6.51031 0.250435 15.359C0.0834783 15.6929 0 16.1938 0 16.6112C0 16.9451 0.0834783 17.446 0.250435 17.7799C4.75826 26.6286 13.7739 32.5555 24.0417 32.5555C34.2261 32.5555 43.2417 26.6286 47.7496 17.7799C47.9165 17.446 48 16.9451 48 16.5277C48 16.1938 47.9165 15.6929 47.7496 15.359ZM24.0417 3.17118C29.8852 3.17118 34.727 8.01292 34.727 13.8564C34.727 19.7834 29.8852 24.5416 24.0417 24.5416C18.1148 24.5416 13.3565 19.7834 13.3565 13.8564C13.3565 8.01292 18.1148 3.25466 24.0417 3.17118ZM24.0417 29.8842C15.0261 29.8842 6.84522 24.7921 2.6713 16.5277C4.67478 12.6042 9.51652 7.76249 13.44 5.75901C11.687 8.01292 10.6852 10.8512 10.6852 13.8564C10.6852 21.286 16.6122 27.2129 24.0417 27.2129C31.3878 27.2129 37.3983 21.286 37.3983 13.8564C37.3983 10.8512 36.313 8.01292 34.56 5.75901C38.4835 7.76249 43.3252 12.6042 45.4122 16.5277C41.1548 24.7921 32.9739 29.8842 24.0417 29.8842Z" fill="#E27730"/>
</svg>
