<svg width="48" height="36" viewBox="0 0 48 36" fill="none" xmlns="http://www.w3.org/2000/svg">
<path d="M43.5 0H4.5C1.96875 0 0 2.0625 0 4.5V31.5C0 34.0312 1.96875 36 4.5 36H43.5C45.9375 36 48 34.0312 48 31.5V4.5C48 2.0625 45.9375 0 43.5 0ZM45 31.5C45 32.3438 44.25 33 43.5 33H4.5C3.65625 33 3 32.3438 3 31.5V4.5C3 3.75 3.65625 3 4.5 3H43.5C44.25 3 45 3.75 45 4.5V31.5ZM10.5 15.75C13.3125 15.75 15.75 13.4062 15.75 10.5C15.75 7.6875 13.3125 5.25 10.5 5.25C7.59375 5.25 5.25 7.6875 5.25 10.5C5.25 13.4062 7.59375 15.75 10.5 15.75ZM10.5 8.25C11.7188 8.25 12.75 9.28125 12.75 10.5C12.75 11.8125 11.7188 12.75 10.5 12.75C9.1875 12.75 8.25 11.8125 8.25 10.5C8.25 9.28125 9.1875 8.25 10.5 8.25ZM29.9062 10.5L21 19.4062L18 16.5C17.1562 15.5625 15.75 15.5625 14.9062 16.5L6.65625 24.75C6.28125 25.0312 6 25.7812 6 26.25V28.875C6 29.5312 6.46875 30 7.125 30H40.875C41.4375 30 42 29.5312 42 28.875V20.25C42 19.6875 41.7188 19.125 41.25 18.75L33 10.5C32.1562 9.5625 30.75 9.5625 29.9062 10.5ZM39 27H9V26.625L16.5 19.125L21 23.625L31.5 13.125L39 20.625V27Z" fill="#E27730"/>
</svg>
