<svg width="17" height="16" viewBox="0 0 17 16" fill="none" xmlns="http://www.w3.org/2000/svg">
<path d="M7.47777 0.532863L5.52477 4.49286L1.15577 5.12986C0.979036 5.15566 0.813048 5.2304 0.676584 5.34564C0.54012 5.46087 0.438627 5.61199 0.383584 5.7819C0.328542 5.95182 0.322146 6.13374 0.365123 6.3071C0.4081 6.48046 0.498735 6.63833 0.626771 6.76286L3.78777 9.84286L3.03677 14.1939C3.00645 14.3698 3.02601 14.5507 3.09323 14.7161C3.16045 14.8816 3.27265 15.0248 3.41712 15.1298C3.56159 15.2347 3.73255 15.297 3.91064 15.3098C4.08873 15.3225 4.26683 15.2851 4.42477 15.2019L8.33677 13.1479L12.2458 15.2029C12.4039 15.2867 12.5824 15.3244 12.7609 15.3119C12.9394 15.2993 13.1109 15.237 13.2557 15.1319C13.4006 15.0268 13.5131 14.8832 13.5805 14.7174C13.6478 14.5516 13.6673 14.3702 13.6368 14.1939L12.8848 9.84286L16.0458 6.76286C16.1738 6.63833 16.2644 6.48046 16.3074 6.3071C16.3504 6.13374 16.344 5.95182 16.289 5.7819C16.2339 5.61199 16.1324 5.46087 15.996 5.34564C15.8595 5.2304 15.6935 5.15566 15.5168 5.12986L11.1478 4.49286L9.19477 0.532863C9.11554 0.372869 8.99318 0.238199 8.84149 0.144045C8.68979 0.0498911 8.51481 0 8.33627 0C8.15773 0 7.98275 0.0498911 7.83106 0.144045C7.67936 0.238199 7.557 0.372869 7.47777 0.532863Z" fill="#FDB82C"/>
</svg>
